<svg xmlns="http://www.w3.org/2000/svg" width="20" height="20" viewBox="0 0 20 20">
    <path fill="#B0B0BA" fill-rule="nonzero" d="M.342 3.786L3.826.304a.975.975 0 0 1 1.403 0l3.485 3.482a1.19 1.19 0 0 1-.187 1.823c-.468.304-1.123.21-1.52-.187l-1.31-1.309v14.678c0 .654-.538 1.191-1.193 1.191a1.197 1.197 0 0 1-1.192-1.191V4.137L2.049 5.422a1.238 1.238 0 0 1-1.52.187 1.19 1.19 0 0 1-.187-1.823zM14.77 19.702a.975.975 0 0 0 1.403 0l3.484-3.482a1.19 1.19 0 0 0-.187-1.823c-.467-.304-1.122-.21-1.52.187l-1.31 1.308v-14.7C16.642.538 16.105 0 15.45 0c-.655 0-1.193.538-1.193 1.192v14.677l-1.31-1.309a1.238 1.238 0 0 0-1.52-.187c-.654.421-.701 1.31-.187 1.823l3.532 3.506z"/>
</svg>
